<mxfile host="app.diagrams.net" modified="2023-08-03T03:14:36.719Z" agent="Mozilla/5.0 (Windows NT 10.0; Win64; x64; rv:109.0) Gecko/20100101 Firefox/115.0" version="21.5.1" etag="x6LmcOHITjTOxrH256jj" type="github">
  <diagram name="第 1 页" id="rZ7swDxG__V0_b9eqmYJ">
    <mxGraphModel>
      <root>
        <mxCell id="0" />
        <mxCell id="1" parent="0" />
      </root>
    </mxGraphModel>
  </diagram>
</mxfile>
